<svg width="504.956" height="546.088" viewBox="0 0 378.717 409.566" xml:space="preserve" color-interpolation-filters="sRGB" version="1.1" id="svg299" xmlns:xlink="http://www.w3.org/1999/xlink" xmlns="http://www.w3.org/2000/svg" style="fill:none;fill-rule:evenodd;stroke-linecap:square;stroke-miterlimit:3;font-size:12px;overflow:visible"><style id="style2">.st2{fill:none;stroke:none;stroke-linecap:round;stroke-linejoin:round;stroke-width:1.5px}.st3{fill:#000;font-family:Calibri;font-size:.833336em}.st4{font-size:1em}.st5{fill:#000;stroke:none;stroke-linecap:round;stroke-linejoin:round;stroke-width:1.5px}.st6{fill:#feffff;font-family:Calibri;font-size:.833336em}.st7{fill:#fff;stroke:#feffff;stroke-linecap:round;stroke-linejoin:round;stroke-width:1.5px}.st8{marker-end:url(#mrkr13-22);stroke:#000;stroke-dasharray:6 3;stroke-linecap:butt;stroke-width:1.5px}.st10{marker-end:url(#mrkr13-35);stroke:#7f7f7f;stroke-linecap:butt;stroke-width:1.5px}.st11{fill:#7f7f7f;fill-opacity:1;stroke:#7f7f7f;stroke-opacity:1;stroke-width:.373134px}.st12{fill:#feffff;font-family:Calibri;font-size:1.00001em}</style><defs id="Markers"><marker id="mrkr13-22" refX="-8.04" orient="auto" markerUnits="strokeWidth" overflow="visible" style="fill:#000;fill-opacity:1;stroke:#000;stroke-opacity:1;stroke-width:.373134px"><use xlink:href="#lend13" transform="scale(-2.68)" id="use7"/></marker><marker id="mrkr13-35" class="st11" refX="-8.04" orient="auto" markerUnits="strokeWidth" overflow="visible"><use xlink:href="#lend13" transform="scale(-2.68)" id="use10"/></marker><marker id="mrkr13-61" class="st11" refX="7.8" orient="auto" markerUnits="strokeWidth" overflow="visible"><use xlink:href="#lend13" transform="scale(2.68)" id="use13"/></marker><g id="lend13"><path d="M3 1 0 0l3-1v2" style="stroke:none" id="path4"/></g></defs><g id="g297"><g id="shape1-1" transform="translate(18.75 -64.728)"><path d="M11.48 409.57h316.4a13.338 13.338-180 0 0 13.34-13.34V140.57a13.338 13.338-180 0 0-13.34-13.34H11.48A11.477 11.477-180 0 0 0 138.71v259.38a11.477 11.477-180 0 0 11.48 11.48Z" id="path21" style="fill:#fff;stroke:#0c0c0c;stroke-linecap:round;stroke-linejoin:round;stroke-width:1.5px"/></g><g id="shape3-3" transform="translate(161.825 -356.177)"><path class="st2" id="rect28" d="M0 386.889h52.224v22.677H0z"/><text x="6.13" y="395.23" class="st3" id="text32">perceived <tspan x="8.19" dy="1.2em" class="st4" id="tspan30">behavior</tspan></text></g><g id="shape4-7" transform="translate(108.567 -288.363)"><path d="M7.37 409.57h58.96a7.37 7.37-180 0 0 7.37-7.37v-27.78a7.37 7.37-180 0 0-7.37-7.37H7.37A7.37 7.37-180 0 0 0 374.42v27.78a7.37 7.37-180 0 0 7.37 7.37Z" class="st5" id="path39"/><text x="6.44" y="385.31" class="st6" id="text43">Recent Activity <tspan x="14.72" dy="1.2em" class="st4" id="tspan41">Perception</tspan></text></g><g id="shape7-11" transform="translate(193.606 -288.363)"><path d="M7.37 409.57h58.96a7.37 7.37-180 0 0 7.37-7.37v-27.78a7.37 7.37-180 0 0-7.37-7.37H7.37A7.37 7.37-180 0 0 0 374.42v27.78a7.37 7.37-180 0 0 7.37 7.37Z" class="st5" id="path50"/><text x="4.98" y="385.31" class="st6" id="text54">Current Activity <tspan x="14.72" dy="1.2em" class="st4" id="tspan52">Perception</tspan></text></g><g id="shape45-15" transform="translate(134.97 -338.74)"><path class="st7" id="rect59" d="M0 400.354h18.951v9.213H0z"/></g><g id="shape8-17" transform="translate(138.331 -377.277)"><path d="M7.09 409.57v34.33" class="st8" id="path64"/></g><g id="shape46-23" transform="translate(221.953 -338.74)"><path class="st7" id="rect69" d="M0 400.354h18.951v9.213H0z"/></g><g id="shape9-25" transform="translate(223.37 -378.854)"><path d="M7.09 409.57v35.91" class="st8" id="path74"/></g><g id="shape10-30" transform="translate(145.417 -288.363)"><path d="M0 409.57v6.51a5.04 5.04-180 0 0 5.04 5.04h32.44a5.04 5.04 0 0 1 5.04 5.04v1.33" class="st10" id="path79"/></g><g id="shape11-36" transform="translate(97.228 -262.728)"><path class="st2" id="rect86" d="M0 386.889h52.224v22.677H0z"/><text x="4" y="395.23" class="st3" id="text90">dialogue <tspan x="4" dy="1.2em" class="st4" id="tspan88">moves</tspan></text></g><g id="shape12-40" transform="translate(232.091 -262.823)"><path class="st2" id="rect97" d="M0 386.889h52.224v22.677H0z"/><text x="4" y="395.23" class="st3" id="text101">activity <tspan x="4" dy="1.2em" class="st4" id="tspan99">status</tspan></text></g><g id="shape13-44" transform="translate(230.457 -288.363)"><path d="M0 409.57v6.51a5.04 5.04 0 0 1-5.04 5.04h-32.44a5.04 5.04-180 0 0-5.04 5.04v1.33" class="st10" id="path106"/></g><g id="shape14-49" transform="translate(151.087 -215.862)"><path d="M7.37 409.57h58.96a7.37 7.37-180 0 0 7.37-7.37v-27.78a7.37 7.37-180 0 0-7.37-7.37H7.37A7.37 7.37-180 0 0 0 374.42v27.78a7.37 7.37-180 0 0 7.37 7.37Z" class="st5" id="path113"/><text x="4.83" y="391.91" class="st12" id="text115">State Update</text></g><g id="shape15-52" transform="translate(32.923 -143.44)"><path d="M21.26 409.57h270.63a21.26 21.26-180 0 0 21.26-21.26 21.26 21.26-180 0 0-21.26-21.26H21.26A21.26 21.26-180 0 0 0 388.31a21.26 21.26-180 0 0 21.26 21.26Z" class="st5" id="path122"/><text x="113.46" y="391.91" class="st12" id="text124">Information State</text></g><g id="shape16-55" transform="translate(180.992 -215.862)"><path d="M7.06 421.27v.36l.05 5.78" id="path129" style="marker-end:url(#mrkr13-35);marker-start:url(#mrkr13-61);stroke:#7f7f7f;stroke-linecap:butt;stroke-width:1.5px"/></g><g id="shape17-63" transform="translate(190.172 -189.453)"><path class="st2" id="rect136" d="M0 386.889h52.224v22.677H0z"/><text x="7.45" y="401.23" class="st3" id="text138">&lt;affects&gt;</text></g><g id="shape18-66" transform="translate(32.923 -78.244)"><path d="M7.37 409.57h58.96a7.37 7.37-180 0 0 7.37-7.37v-27.78a7.37 7.37-180 0 0-7.37-7.37H7.37A7.37 7.37-180 0 0 0 374.42v27.78a7.37 7.37-180 0 0 7.37 7.37Z" class="st5" id="path145"/><text x="21.14" y="384.71" class="st12" id="text149">Action <tspan x="14.51" dy="1.2em" class="st4" id="tspan147">Selection</tspan></text></g><g id="shape19-70" transform="translate(262.381 -78.244)"><path d="M7.37 409.57h58.96a7.37 7.37-180 0 0 7.37-7.37v-27.78a7.37 7.37-180 0 0-7.37-7.37H7.37A7.37 7.37-180 0 0 0 374.42v27.78a7.37 7.37-180 0 0 7.37 7.37Z" class="st5" id="path156"/><text x="21.14" y="384.71" class="st12" id="text160">Action <tspan x="10.03" dy="1.2em" class="st4" id="tspan158">Realization</tspan></text></g><g id="shape20-74" transform="translate(147.652 -78.244)"><path d="M7.37 409.57h58.96a7.37 7.37-180 0 0 7.37-7.37v-27.78a7.37 7.37-180 0 0-7.37-7.37H7.37A7.37 7.37-180 0 0 0 374.42v27.78a7.37 7.37-180 0 0 7.37 7.37Z" class="st5" id="path167"/><text x="21.14" y="384.71" class="st12" id="text171">Action <tspan x="20.4" dy="1.2em" class="st4" id="tspan169">Timing</tspan></text></g><g id="shape22-78" transform="translate(76.86 -143.724)"><path d="M-7.09 409.57v10.9" class="st10" id="path176"/></g><g id="shape23-83" transform="translate(191.589 -143.342)"><path d="M-7.09 409.57v10.52" class="st10" id="path181"/></g><g id="shape25-88" transform="translate(68.282 -120.763)"><path class="st2" id="rect188" d="M0 386.889h52.224v22.677H0z"/><text x="7.45" y="401.23" class="st3" id="text190">&lt;affects&gt;</text></g><g id="shape26-91" transform="translate(106.624 -92.417)"><path d="M0 402.48h28.97" class="st10" id="path195"/></g><g id="shape27-96" transform="translate(106.624 -101.488)"><path class="st2" id="rect202" d="M0 386.889h35.359v22.677H0z"/><text x="4" y="395.23" class="st3" id="text206">target <tspan x="4" dy="1.2em" class="st4" id="tspan204">move</tspan></text></g><g id="shape28-100" transform="translate(183.902 -120.763)"><path class="st2" id="rect213" d="M0 386.889h52.224v22.677H0z"/><text x="7.45" y="401.23" class="st3" id="text215">&lt;affects&gt;</text></g><g id="shape47-103" transform="translate(289.984 -62.93)"><path class="st7" id="rect220" d="M0 401.629h18.951v7.937H0z"/></g><g id="shape34-105" transform="translate(292.144 -78.244)"><path d="M7.09 409.57v35.47" class="st8" id="path225"/></g><g id="shape35-110" transform="translate(305.192 -33.736)"><path class="st2" id="rect232" d="M0 386.889h52.224v22.677H0z"/><text x="4" y="395.23" class="st3" id="text236">output <tspan x="4" dy="1.2em" class="st4" id="tspan234">behavior</tspan></text></g><g id="shape37-114" transform="translate(292.144 -143.342)"><path d="M7.09 409.57v10.52" class="st10" id="path241"/></g><g id="shape38-119" transform="translate(297.666 -121.421)"><path class="st2" id="rect248" d="M0 386.889h52.224v22.677H0z"/><text x="7.45" y="401.23" class="st3" id="text250">&lt;affects&gt;</text></g><g id="shape39-122" transform="translate(221.353 -92.417)"><path d="M0 402.48h28.97" class="st10" id="path255"/></g><g id="shape40-127" transform="translate(221.353 -101.767)"><path class="st2" id="rect262" d="M0 386.889h35.359v22.677H0z"/><text x="4" y="395.23" class="st3" id="text266">Stop/<tspan x="4" dy="1.2em" class="st4" id="tspan264">Go</tspan></text></g><g id="shape41-131" transform="translate(295.654 -185.96)"><path d="M0 409.57V290.94a5.04 5.04-180 0 0-5.04-5.04h-11.25" class="st10" id="path271"/></g><g id="shape42-136" transform="translate(293.854 -186.618)"><path class="st2" id="rect278" d="M0 386.889h52.224v22.677H0z"/><text x="7.45" y="401.23" class="st3" id="text280">&lt;affects&gt;</text></g><g id="shape43-139" transform="translate(80.22 -185.96)"><path d="M0 409.57V290.94a5.04 5.04 0 0 1 5.04-5.04h11.25" class="st10" id="path285"/></g><g id="shape44-144" transform="translate(29.197 -186.618)"><path class="st2" id="rect292" d="M0 386.889h52.224v22.677H0z"/><text x="7.45" y="401.23" class="st3" id="text294">&lt;affects&gt;</text></g></g></svg>