<svg xmlns="http://www.w3.org/2000/svg" version="1.1" width="400" height="400" id="svg2985"><g id="layer2" style="display:inline"><path d="M28.563 71.5v261.125l100.687.438c43.771-3.952 81.14-18.607 83.563-70.875.249-45.814-26.212-62.364-53.5-70.782 27.563-4.09 42.912-25.3 42.375-55.594-.035-42.847-29.472-60.195-71.594-64.187zm89.03 28.5c43.702.812 49.151 22.274 49.563 40.25-.276 27.273-18.417 37.935-45.344 38.781l-58.687-.219V100.22zm3.376 108.063c47.921.97 54.76 24.736 55.094 49.343-1.078 40.415-29.027 45.476-55.282 46.844l-57.656-.219V208.25z" id="path2997" style="fill:#fff;stroke:#fff;stroke-width:1px;stroke-linecap:butt;stroke-linejoin:miter;stroke-opacity:1"/><path d="M270.344 71.625v261.438c50.606-8.92 107.04-28.239 107.625-91.532-.415-14.83-8.439-42.001-39-42.375-13.28-.232-26.026-.516-59.469 41.531V71.625zm55.937 147.031c22.857.349 25.99 14.738 27.118 27.545 1.02 49.22-36.675 64.417-73.687 75.188l-.212-62.92c13.106-19.556 31.24-40.247 46.781-39.813z" id="path3018" style="fill:#fff;stroke:#fff;stroke-width:1px;stroke-linecap:butt;stroke-linejoin:miter;stroke-opacity:1"/><path d="M280.114 289.825v-31.15l2.052-3.001c11.71-17.13 20.858-26.681 30.665-32.024 4.88-2.657 11.614-4.578 14.92-4.253 10.05.987 16.677 3.901 20.26 8.91 2.374 3.321 3.415 6.803 4.15 13.878 1.292 12.459-.713 25.13-5.62 35.507-4.135 8.745-11.027 16.762-19.89 23.139-10.402 7.484-24.547 13.655-45.424 19.816l-1.113.329v-31.15z" id="path3023" style="fill:none;stroke:none"/><path d="M280.114 289.825v-31.15l2.052-3.001c11.71-17.13 20.858-26.681 30.665-32.024 4.88-2.657 11.614-4.578 14.92-4.253 10.05.987 16.677 3.901 20.26 8.91 2.374 3.321 3.415 6.803 4.15 13.878 1.292 12.459-.713 25.13-5.62 35.507-4.135 8.745-11.027 16.762-19.89 23.139-10.402 7.484-24.547 13.655-45.424 19.816l-1.113.329v-31.15z" id="path3025" style="fill:none;stroke:none"/></g></svg>