<svg version="1.1" id="svg2" height="100" width="100" xmlns="http://www.w3.org/2000/svg"><g id="layer2" style="display:inline"><path style="opacity:1;fill:none;fill-opacity:1" d="M.061 90.011v-9.723H19.76v19.446H.061V90.01z" id="path3353"/><path style="opacity:1;fill:none;fill-opacity:1" d="M.061 69.934v-9.849H19.76v19.698H.061v-9.849z" id="path3355"/><path style="fill:#fff;stroke-width:.177282px;stroke-linejoin:round;stroke-opacity:.862745" d="M.126 9.975v9.85h19.698V.125H.126v9.85z" id="path907"/><path style="fill:#fff;stroke-width:.177282px;stroke-linejoin:round;stroke-opacity:.862745" d="M.126 29.926v9.849h19.698V20.077H.126v9.849z" id="path946"/><path style="fill:#fff;stroke-width:.177282px;stroke-linejoin:round;stroke-opacity:.862745" d="M20.077 29.926v9.849h19.698V20.077H20.077v9.849z" id="path985"/><path style="fill:#fff;stroke-width:.177282px;stroke-linejoin:round;stroke-opacity:.862745" d="M20.077 9.975v9.85h19.698V.125H20.077v9.85z" id="path1024"/><path style="fill:#fff;stroke-width:.177282px;stroke-linejoin:round;stroke-opacity:.862745" d="M40.28 9.975v9.85h19.445V.125H40.28v9.85z" id="path1063"/><path style="fill:#fff;stroke-width:.177282px;stroke-linejoin:round;stroke-opacity:.862745" d="M60.23 9.975v9.85h19.698V.125H60.23v9.85z" id="path1102"/><path style="fill:#fff;stroke-width:.177282px;stroke-linejoin:round;stroke-opacity:.862745" d="M60.23 29.926v9.849h19.698V20.077H60.23v9.849z" id="path1141"/><path style="fill:#fff;stroke-width:.177282px;stroke-linejoin:round;stroke-opacity:.862745" d="M80.18 29.926v9.849H99.88V20.077H80.18v9.849z" id="path1180"/><path style="fill:#fff;stroke-width:.177282px;stroke-linejoin:round;stroke-opacity:.862745" d="M80.18 9.975v9.85H99.88V.125H80.18v9.85z" id="path1219"/><path style="fill:#fff;stroke-width:.177282px;stroke-linejoin:round;stroke-opacity:.862745" d="M80.18 50.003v9.722H99.88V40.28H80.18v9.723z" id="path1258"/><path style="fill:#fff;stroke-width:.177282px;stroke-linejoin:round;stroke-opacity:.862745" d="M40.28 50.003v9.722h19.445V40.28H40.28v9.723z" id="path1297"/><path style="fill:#fff;stroke-width:.177282px;stroke-linejoin:round;stroke-opacity:.862745" d="M20.077 50.003v9.722h19.698V40.28H20.077v9.723z" id="path1336"/><path style="fill:#fff;stroke-width:.177282px;stroke-linejoin:round;stroke-opacity:.862745" d="M.126 50.003v9.722h19.698V40.28H.126v9.723z" id="path1375"/><path style="fill:#fff;stroke-width:.177282px;stroke-linejoin:round;stroke-opacity:.862745" d="M.126 70.08v9.848h19.698V60.23H.126v9.85z" id="path1443"/><path style="fill:#fff;stroke-width:.177282px;stroke-linejoin:round;stroke-opacity:.862745" d="M.126 90.03v9.849h19.698V80.18H.126v9.849z" id="path1482"/><path style="fill:#fff;stroke-width:.177282px;stroke-linejoin:round;stroke-opacity:.862745" d="M20.077 90.03v9.849h19.698V80.18H20.077v9.849z" id="path1521"/><path style="fill:#fff;stroke-width:.177282px;stroke-linejoin:round;stroke-opacity:.862745" d="M40.28 90.03v9.849h19.445V80.18H40.28v9.849z" id="path1560"/><path style="fill:#fff;stroke-width:.177282px;stroke-linejoin:round;stroke-opacity:.862745" d="M60.23 90.03v9.849h19.698V80.18H60.23v9.849z" id="path1599"/><path style="fill:#fff;stroke-width:.177282px;stroke-linejoin:round;stroke-opacity:.862745" d="M80.18 90.03v9.849H99.88V80.18H80.18v9.849z" id="path1638"/><path style="fill:#fff;stroke-width:.177282px;stroke-linejoin:round;stroke-opacity:.862745" d="M80.18 70.08v9.848H99.88V60.23H80.18v9.85z" id="path1677"/></g><g transform="translate(0 -952.362)" id="layer1" style="display:inline"><path d="M0 0v100M20 0v100M40 0v100M60 0v100M80 0v100M100 0v100M0 0h100M0 20h100M0 40h100M0 60h100M0 80h100M0 100h100" style="fill:none;fill-opacity:.75;fill-rule:evenodd;stroke:#000;stroke-width:.1pt;stroke-linecap:butt;stroke-linejoin:miter;stroke-opacity:1" id="path4209" transform="translate(0 952.362)"/><path style="opacity:1;fill:#000;fill-opacity:1" d="M20.264 69.934v-9.849H39.71v19.698H20.264v-9.849z" id="path4211" transform="translate(0 952.362)"/><path style="opacity:1;fill:#000;fill-opacity:1" d="M40.215 69.934v-9.849h19.698v19.698H40.215v-9.849z" id="path4213" transform="translate(0 952.362)"/><path style="opacity:1;fill:#000;fill-opacity:1" d="M60.165 69.934v-9.849h19.698v19.698H60.165v-9.849z" id="path4215" transform="translate(0 952.362)"/><path style="opacity:1;fill:#000;fill-opacity:1" d="M60.165 49.984v-9.85h19.698V59.834H60.165v-9.85z" id="path4217" transform="translate(0 952.362)"/><path style="opacity:1;fill:#000;fill-opacity:1" d="M40.215 30.033v-9.849h19.698v19.698H40.215v-9.849z" id="path4219" transform="translate(0 952.362)"/><path style="opacity:1;fill:none;fill-opacity:1" d="M.061 90.011v-9.723H19.76v19.446H.061V90.01z" id="path3349" transform="translate(0 952.362)"/><path style="opacity:1;fill:none;fill-opacity:1" d="M.061 90.011v-9.723H19.76v19.446H.061V90.01z" id="path3351" transform="translate(0 952.362)"/></g></svg>