<svg xmlns="http://www.w3.org/2000/svg" width="100" height="100" viewBox="0 0 26.458 26.458" version="1.1" id="svg8"><g id="layer1" transform="translate(0 -270.542)"><path d="M0 0v26.458M5.292 0v26.458M10.583 0v26.458M15.875 0v26.458M21.167 0v26.458M26.458 0v26.458M0 0h26.458M0 5.292h26.458M0 10.583h26.458M0 15.875h26.458M0 21.167h26.458M0 26.458h26.458" style="fill:none;stroke:#000;stroke-width:2.64583px" id="path4513"/><path style="fill:none;fill-rule:evenodd;stroke:#000;stroke-width:.264583px;stroke-linecap:butt;stroke-linejoin:miter;stroke-opacity:1" d="M6.747 270.542V297" id="path4519"/><path style="fill:none;fill-rule:evenodd;stroke:#000;stroke-width:.264583px;stroke-linecap:butt;stroke-linejoin:miter;stroke-opacity:1" d="M13.361 270.542V297" id="path4519-0"/><path d="M3.408 130.72v26.458M8.7 130.72v26.458m5.292-26.458v26.458m5.291-26.458v26.458m5.292-26.458v26.458m5.292-26.458v26.458M3.408 130.72h26.459m-26.459 5.292h26.459m-26.459 5.291h26.459m-26.459 5.292h26.459m-26.459 5.292h26.459m-26.459 5.291h26.459" style="fill:none;stroke:#000;stroke-width:2.64583px" id="path4513-2"/><path style="fill:none;fill-rule:evenodd;stroke:#000;stroke-width:.264583px;stroke-linecap:butt;stroke-linejoin:miter;stroke-opacity:1" d="M10.155 401.262v26.458" id="path4519-2"/><path style="fill:none;fill-rule:evenodd;stroke:#000;stroke-width:.264583px;stroke-linecap:butt;stroke-linejoin:miter;stroke-opacity:1" d="M16.77 401.262v26.458" id="path4519-0-5"/><path style="fill:none;fill-rule:evenodd;stroke:#000;stroke-width:.264583px;stroke-linecap:butt;stroke-linejoin:miter;stroke-opacity:1" d="M19.976 270.542V297" id="path4519-0-57"/><path style="opacity:1;fill:none;fill-opacity:1;stroke:#000;stroke-width:.0529167px;stroke-linecap:round;stroke-linejoin:round;stroke-miterlimit:4;stroke-dasharray:none;stroke-dashoffset:0;stroke-opacity:1" id="rect4587" d="M.067 270.674h26.458v26.458H.067z"/><path id="rect4589" style="opacity:1;fill:none;fill-opacity:1;stroke:#000;stroke-width:.544831px;stroke-linecap:round;stroke-linejoin:round;stroke-miterlimit:4;stroke-dasharray:none;stroke-dashoffset:0;stroke-opacity:1" d="M-.257 270.285h26.972v26.972H-.257z"/><path style="fill:none;fill-rule:evenodd;stroke:#000;stroke-width:.264583px;stroke-linecap:butt;stroke-linejoin:miter;stroke-opacity:1" d="M26.458 290.253H0" id="path4519-1"/><path style="fill:none;fill-rule:evenodd;stroke:#000;stroke-width:.264583px;stroke-linecap:butt;stroke-linejoin:miter;stroke-opacity:1" d="M26.458 283.639H0" id="path4519-1-3"/><path style="fill:none;fill-rule:evenodd;stroke:#000;stroke-width:.264583px;stroke-linecap:butt;stroke-linejoin:miter;stroke-opacity:1" d="M26.458 277.024H0" id="path4519-1-3-2"/></g><g id="layer2"><path style="opacity:1;fill:#00e8f9;fill-opacity:1;stroke:#000;stroke-width:.0505076px;stroke-linecap:round;stroke-linejoin:round;stroke-miterlimit:4;stroke-dasharray:none;stroke-dashoffset:0;stroke-opacity:1" d="M.456 12.31V.693h24.497v23.234H.456Z" id="path4658" transform="scale(.26458)"/><path style="opacity:1;fill:#ff6900;fill-opacity:1;stroke:#000;stroke-width:.013472px;stroke-linecap:round;stroke-linejoin:round;stroke-miterlimit:4;stroke-dasharray:none;stroke-dashoffset:0;stroke-opacity:1" d="M6.936 3.207V.083h6.28v6.248h-6.28Z" id="path4660"/><path style="opacity:1;fill:#5537c8;fill-opacity:1;stroke:#000;stroke-width:.013472px;stroke-linecap:round;stroke-linejoin:round;stroke-miterlimit:4;stroke-dasharray:none;stroke-dashoffset:0;stroke-opacity:1" d="M13.551 3.207V.083h6.28v6.248h-6.28z" id="path4662"/><path style="opacity:1;fill:#c837c7;fill-opacity:1;stroke:#000;stroke-width:.013472px;stroke-linecap:round;stroke-linejoin:round;stroke-miterlimit:4;stroke-dasharray:none;stroke-dashoffset:0;stroke-opacity:1" d="M20.166 3.207V.083h6.28v6.248h-6.28Z" id="path4664"/><path style="opacity:1;fill:#37c86a;fill-opacity:1;stroke:#000;stroke-width:.0505076px;stroke-linecap:round;stroke-linejoin:round;stroke-miterlimit:4;stroke-dasharray:none;stroke-dashoffset:0;stroke-opacity:1" d="M76.218 37.059v-11.87h23.738V48.928H76.217Z" id="path4666" transform="scale(.26458)"/><path style="opacity:1;fill:#ecea13;fill-opacity:1;stroke:#000;stroke-width:.0505076px;stroke-linecap:round;stroke-linejoin:round;stroke-miterlimit:4;stroke-dasharray:none;stroke-dashoffset:0;stroke-opacity:1" d="M51.217 37.059v-11.87H74.956V48.928h-23.74Z" id="path4668" transform="scale(.26458)"/><path style="opacity:1;fill:#37c890;fill-opacity:1;stroke:#000;stroke-width:.0505076px;stroke-linecap:round;stroke-linejoin:round;stroke-miterlimit:4;stroke-dasharray:none;stroke-dashoffset:0;stroke-opacity:1" d="M26.215 37.059v-11.87H49.954V48.928H26.215Z" id="path4670" transform="scale(.26458)"/><path style="opacity:1;fill:#2305fa;fill-opacity:1;stroke:#000;stroke-width:.0505076px;stroke-linecap:round;stroke-linejoin:round;stroke-miterlimit:4;stroke-dasharray:none;stroke-dashoffset:0;stroke-opacity:1" d="M.456 37.059v-11.87h24.497V48.928H.456Z" id="path4672" transform="scale(.26458)"/><path style="opacity:1;fill:#ca8641;fill-opacity:1;stroke:#000;stroke-width:.0505076px;stroke-linecap:round;stroke-linejoin:round;stroke-miterlimit:4;stroke-dasharray:none;stroke-dashoffset:0;stroke-opacity:1" d="M.456 62.06V50.19h24.497v23.74H.456Z" id="path4674" transform="scale(.26458)"/><path style="opacity:1;fill:#37b2c8;fill-opacity:1;stroke:#000;stroke-width:.0505076px;stroke-linecap:round;stroke-linejoin:round;stroke-miterlimit:4;stroke-dasharray:none;stroke-dashoffset:0;stroke-opacity:1" d="M26.215 62.06V50.19H49.954v23.74H26.215Z" id="path4676" transform="scale(.26458)"/><path style="opacity:1;fill:#3738c8;fill-opacity:1;stroke:#000;stroke-width:.0505076px;stroke-linecap:round;stroke-linejoin:round;stroke-miterlimit:4;stroke-dasharray:none;stroke-dashoffset:0;stroke-opacity:1" d="M51.217 62.06V50.19H74.956v23.74h-23.74Z" id="path4678" transform="scale(.26458)"/><path style="opacity:1;fill:#c83756;fill-opacity:1;stroke:#000;stroke-width:.0505076px;stroke-linecap:round;stroke-linejoin:round;stroke-miterlimit:4;stroke-dasharray:none;stroke-dashoffset:0;stroke-opacity:1" d="M76.218 62.06V50.19h23.738v23.74H76.217Z" id="path4680" transform="scale(.26458)"/><path style="opacity:1;fill:#27aad8;fill-opacity:1;stroke:#000;stroke-width:.0505076px;stroke-linecap:round;stroke-linejoin:round;stroke-miterlimit:4;stroke-dasharray:none;stroke-dashoffset:0;stroke-opacity:1" d="m76.16 87.693.067-12.501h23.729V100.193H76.092z" id="path4682" transform="scale(.26458)"/><path style="opacity:1;fill:#c85337;fill-opacity:1;stroke:#000;stroke-width:.0505076px;stroke-linecap:round;stroke-linejoin:round;stroke-miterlimit:4;stroke-dasharray:none;stroke-dashoffset:0;stroke-opacity:1" d="m51.158 87.693.068-12.501h23.729V100.193H51.09z" id="path4684" transform="scale(.26458)"/><path style="opacity:1;fill:#a037c8;fill-opacity:1;stroke:#000;stroke-width:.0505076px;stroke-linecap:round;stroke-linejoin:round;stroke-miterlimit:4;stroke-dasharray:none;stroke-dashoffset:0;stroke-opacity:1" d="m26.157 87.693.068-12.501h23.729V100.193H26.089z" id="path4686" transform="scale(.26458)"/><path style="opacity:1;fill:#52db24;fill-opacity:1;stroke:#000;stroke-width:.0505076px;stroke-linecap:round;stroke-linejoin:round;stroke-miterlimit:4;stroke-dasharray:none;stroke-dashoffset:0;stroke-opacity:1" d="M.456 87.693V75.192h24.497V100.193H.456Z" id="path4688" transform="scale(.26458)"/><path style="opacity:1;fill:#00e8f9;fill-opacity:1;stroke:none;stroke-width:.505px;stroke-linecap:round;stroke-linejoin:round;stroke-miterlimit:4;stroke-dasharray:none;stroke-dashoffset:0;stroke-opacity:1" d="M.709 12.31V.946H24.7v22.728H.71Z" id="path4523" transform="scale(.26458)"/><path style="opacity:1;fill:#00e8f9;fill-opacity:1;stroke:none;stroke-width:.127532px;stroke-linecap:round;stroke-linejoin:round;stroke-miterlimit:4;stroke-dasharray:none;stroke-dashoffset:0;stroke-opacity:1" d="M.709 12.31V.946H24.7v22.728H.71Z" id="path4527" transform="scale(.26458)"/><path transform="scale(.26458)" id="path4529" d="M.709 12.31V.946H24.7v22.728H.71Z" style="opacity:1;fill:#00e8f9;fill-opacity:1;stroke:none;stroke-width:.127532px;stroke-linecap:round;stroke-linejoin:round;stroke-miterlimit:4;stroke-dasharray:none;stroke-dashoffset:0;stroke-opacity:1"/><path style="opacity:1;fill:#00e8f9;fill-opacity:1;stroke:none;stroke-width:.127532px;stroke-linecap:round;stroke-linejoin:round;stroke-miterlimit:4;stroke-dasharray:none;stroke-dashoffset:0;stroke-opacity:1" d="M.709 12.31V.946H24.7v22.728H.71Z" id="path4531" transform="scale(.26458)"/><path id="path4533" d="M.188 3.207V.15H6.535v6.114H.188Z" style="opacity:1;fill:#00e8f9;fill-opacity:1;stroke:none;stroke-width:.0340234px;stroke-linecap:round;stroke-linejoin:round;stroke-miterlimit:4;stroke-dasharray:none;stroke-dashoffset:0;stroke-opacity:1"/></g></svg>