<?xml version="1.0" standalone="no"?>
<!DOCTYPE svg PUBLIC "-//W3C//DTD SVG 20010904//EN"
 "http://www.w3.org/TR/2001/REC-SVG-20010904/DTD/svg10.dtd">
<svg version="1.0" xmlns="http://www.w3.org/2000/svg"
 width="700.000000pt" height="700.000000pt" viewBox="0 0 700.000000 700.000000"
 preserveAspectRatio="xMidYMid meet">
<metadata>
Created by potrace 1.14, written by Peter Selinger 2001-2017
</metadata>
<g transform="translate(0.000000,700.000000) scale(0.100000,-0.100000)"
fill="#000000" stroke="none">
<path d="M3553 6993 c31 -2 83 -2 115 0 31 2 5 3 -58 3 -63 0 -89 -1 -57 -3z"/>
<path d="M3753 6983 c15 -2 39 -2 55 0 15 2 2 4 -28 4 -30 0 -43 -2 -27 -4z"/>
<path d="M3868 6973 c12 -2 30 -2 40 0 9 3 -1 5 -23 4 -22 0 -30 -2 -17 -4z"/>
<path d="M4865 6702 c61 -32 147 -82 190 -112 114 -78 317 -284 394 -399 159
-239 256 -525 296 -869 20 -168 19 -496 0 -649 -88 -668 -454 -1135 -1060
-1349 -108 -38 -117 -43 -95 -52 213 -85 435 -264 624 -502 197 -248 322 -462
639 -1090 132 -261 242 -477 245 -480 7 -8 75 73 191 228 555 738 795 1672
661 2582 -152 1033 -764 1951 -1665 2495 -146 88 -492 256 -524 255 -3 0 44
-26 104 -58z"/>
<path d="M2192 4978 l3 -1243 680 0 c711 1 787 4 984 47 243 52 425 143 580
292 208 201 312 466 328 836 18 423 -94 753 -332 978 -151 143 -331 234 -565
286 -194 42 -272 46 -995 46 l-685 0 2 -1242z"/>
<path d="M1145 6082 c-512 -456 -884 -1073 -1055 -1752 -73 -291 -82 -369 -87
-776 -4 -307 -2 -390 12 -490 54 -392 156 -725 330 -1079 135 -276 282 -502
474 -730 127 -150 412 -427 426 -413 3 3 4 1203 3 2667 l-3 2662 -100 -89z"/>
<path d="M2190 1607 l0 -1355 83 -30 c287 -103 556 -168 852 -203 142 -17 575
-18 720 -1 536 63 995 218 1447 489 l108 64 -369 737 c-214 427 -405 794 -454
873 -298 483 -538 667 -978 750 -108 21 -151 22 -761 26 l-648 4 0 -1354z"/>
</g>
</svg>
