<?xml version="1.0" encoding="UTF-8" standalone="no"?>
<!-- Created with Inkscape (http://www.inkscape.org/) -->

<svg
   xmlns:dc="http://purl.org/dc/elements/1.1/"
   xmlns:cc="http://creativecommons.org/ns#"
   xmlns:rdf="http://www.w3.org/1999/02/22-rdf-syntax-ns#"
   xmlns:svg="http://www.w3.org/2000/svg"
   xmlns="http://www.w3.org/2000/svg"
   xmlns:sodipodi="http://sodipodi.sourceforge.net/DTD/sodipodi-0.dtd"
   xmlns:inkscape="http://www.inkscape.org/namespaces/inkscape"
   width="100"
   height="100"
   viewBox="0 0 100 100"
   id="svg2"
   version="1.1"
   inkscape:version="0.91 r13725"
   sodipodi:docname="triangular_diagram.svg">
  <title
     id="title4180">Triangular Voronoi Diagram</title>
  <defs
     id="defs4" />
  <sodipodi:namedview
     id="base"
     pagecolor="#ffffff"
     bordercolor="#666666"
     borderopacity="1.0"
     inkscape:pageopacity="0.0"
     inkscape:pageshadow="2"
     inkscape:zoom="3.959798"
     inkscape:cx="46.539192"
     inkscape:cy="48.139572"
     inkscape:document-units="px"
     inkscape:current-layer="layer1"
     showgrid="false"
     units="px"
     inkscape:window-width="1280"
     inkscape:window-height="697"
     inkscape:window-x="-8"
     inkscape:window-y="-8"
     inkscape:window-maximized="1" />
  <metadata
     id="metadata7">
    <rdf:RDF>
      <cc:Work
         rdf:about="">
        <dc:format>image/svg+xml</dc:format>
        <dc:type
           rdf:resource="http://purl.org/dc/dcmitype/StillImage" />
        <dc:title>Triangular Voronoi Diagram</dc:title>
      </cc:Work>
    </rdf:RDF>
  </metadata>
  <g
     inkscape:label="Layer 1"
     inkscape:groupmode="layer"
     id="layer1"
     transform="translate(0,-952.36216)">
    <ellipse
       style="opacity:1;fill:#000000;fill-opacity:1;stroke:#000000;stroke-width:2.95776987;stroke-miterlimit:4;stroke-dasharray:none;stroke-opacity:1"
       id="circle4152"
       cx="81.021507"
       cy="971.24615"
       rx="3.7676008"
       ry="3.7765963" />
    <ellipse
       cy="1034.3333"
       cx="18.084812"
       id="circle4154"
       style="opacity:1;fill:#000000;fill-opacity:1;stroke:#000000;stroke-width:2.95776987;stroke-miterlimit:4;stroke-dasharray:none;stroke-opacity:1"
       rx="3.7676008"
       ry="3.7765963" />
    <ellipse
       style="opacity:1;fill:#000000;fill-opacity:1;stroke:#000000;stroke-width:2.95776987;stroke-miterlimit:4;stroke-dasharray:none;stroke-opacity:1"
       id="circle4156"
       cx="81.021507"
       cy="1034.3333"
       rx="3.7676008"
       ry="3.7765963" />
    <path
       style="fill:none;fill-rule:evenodd;stroke:#000000;stroke-width:1.05019617px;stroke-linecap:butt;stroke-linejoin:miter;stroke-opacity:1"
       d="M -2.6291826,950.74282 49.553156,1002.7897"
       id="path4158"
       inkscape:connector-curvature="0"
       sodipodi:nodetypes="cc" />
    <path
       style="fill:none;fill-rule:evenodd;stroke:#000000;stroke-width:1.05019617px;stroke-linecap:butt;stroke-linejoin:miter;stroke-opacity:1"
       d="m 102.00039,1002.7897 -52.447234,0"
       id="path4164"
       inkscape:connector-curvature="0"
       sodipodi:nodetypes="cc" />
    <path
       style="fill:#000000;fill-rule:evenodd;stroke:#000000;stroke-width:1.05019617px;stroke-linecap:butt;stroke-linejoin:miter;stroke-opacity:1"
       d="m 49.553156,1055.3622 0,-52.5725"
       id="path4166"
       inkscape:connector-curvature="0"
       sodipodi:nodetypes="cc" />
    <path
       style="opacity:1;fill:#ffaaaa;fill-opacity:1;stroke:#000000;stroke-width:0.26521459;stroke-miterlimit:4;stroke-dasharray:none;stroke-opacity:1"
       d="m -1.7587793,1003.4091 0,-50.88505 25.2767653,25.19476 25.276765,25.19489 0.02104,25.6901 0.02104,25.6901 -25.297811,0 -25.2978118,0 0,-50.8848 z m 22.8488733,35.3308 c 2.998427,-2.0884 3.050774,-6.3781 0.106487,-8.7267 -0.939859,-0.7497 -1.177164,-0.812 -3.093132,-0.812 -2.306269,0 -2.874725,0.2722 -4.328319,2.0725 -1.394661,1.7272 -1.255082,4.7426 0.305585,6.6018 1.659653,1.9772 4.847124,2.3701 7.009379,0.8644 z"
       id="path4174"
       inkscape:connector-curvature="0" />
    <path
       style="opacity:1;fill:#ffb380;fill-opacity:1;stroke:#000000;stroke-width:0.26521459;stroke-miterlimit:4;stroke-dasharray:none;stroke-opacity:1"
       d="m 24.428397,976.77147 -25.52493,-25.47826 51.059196,-0.0127 51.059197,-0.0127 0,25.49098 0,25.49111 -25.534266,0 -25.534264,0 -25.524933,-25.47841 z m 59.234771,-0.88409 c 2.415062,-1.37112 3.380999,-4.61083 2.115269,-7.09455 -0.818434,-1.60599 -2.959596,-2.92084 -4.756421,-2.92084 -1.796826,0 -3.937988,1.31485 -4.75642,2.92084 -1.26573,2.48372 -0.299794,5.72343 2.115267,7.09455 0.767354,0.43565 1.481551,0.59712 2.641153,0.59712 1.159602,0 1.8738,-0.16147 2.641152,-0.59712 z"
       id="path4176"
       inkscape:connector-curvature="0" />
    <path
       style="opacity:1;fill:#cbffcb;fill-opacity:1;stroke:#000000;stroke-width:0.26521459;stroke-miterlimit:4;stroke-dasharray:none;stroke-opacity:1"
       d="m 50.161335,1028.803 0,-25.491 25.43026,0 25.430265,0 0,25.491 0,25.4909 -25.430265,0 -25.43026,0 0,-25.4909 z m 32.789704,10.4744 c 2.117931,-0.8869 3.315215,-2.6475 3.330938,-4.8983 0.0132,-1.8879 -0.792981,-3.4704 -2.265741,-4.4473 -0.943479,-0.6259 -1.372423,-0.7306 -2.99422,-0.7306 -1.621797,0 -2.05074,0.105 -2.994219,0.7306 -1.47276,0.9769 -2.27893,2.5594 -2.265741,4.4473 0.01133,1.6212 0.465826,2.6959 1.593955,3.7692 1.55522,1.4797 3.716304,1.9157 5.595028,1.1291 z"
       id="path4178"
       inkscape:connector-curvature="0" />
  </g>
</svg>
