<?xml version="1.0" standalone="no"?>
<!DOCTYPE svg PUBLIC "-//W3C//DTD SVG 20010904//EN"
 "http://www.w3.org/TR/2001/REC-SVG-20010904/DTD/svg10.dtd">
<svg version="1.0" xmlns="http://www.w3.org/2000/svg"
 width="260.000000pt" height="260.000000pt" viewBox="0 0 260.000000 260.000000"
 preserveAspectRatio="xMidYMid meet">
<metadata>
Created by potrace 1.11, written by Peter Selinger 2001-2013
</metadata>
<g transform="translate(0.000000,260.000000) scale(0.100000,-0.100000)"
fill="#000000" stroke="none">
<path d="M1097 2554 c-528 -82 -962 -519 -1042 -1051 -61 -401 69 -798 355
-1083 145 -146 297 -239 495 -306 450 -150 948 -32 1285 306 146 145 239 297
306 495 147 442 35 936 -290 1269 -291 298 -698 434 -1109 370z m253 -328
c195 -36 324 -125 397 -273 33 -67 37 -83 41 -178 7 -167 -25 -282 -110 -392
-46 -61 -142 -136 -208 -166 -25 -11 -47 -21 -49 -23 -1 -1 147 -177 330 -391
184 -214 340 -396 348 -406 13 -16 4 -17 -151 -17 l-164 0 -310 369 -309 370
-172 0 -173 1 0 -370 0 -370 -125 0 -125 0 0 937 0 936 353 -6 c235 -5 377
-11 427 -21z"/>
<path d="M953 2022 l-133 -3 0 -344 0 -345 169 0 c255 0 356 25 440 109 117
117 134 354 33 471 -80 94 -193 119 -509 112z"/>
</g>
</svg>
