<?xml version="1.0" encoding="UTF-8" standalone="no"?>
<!-- Created with Inkscape (http://www.inkscape.org/) -->

<svg
   inkscape:version="1.1.1 (3bf5ae0d25, 2021-09-20)"
   version="1.1"
   id="svg2"
   viewBox="0 0 100 100"
   height="100"
   width="100"
   sodipodi:docname="glider.svg"
   xmlns:inkscape="http://www.inkscape.org/namespaces/inkscape"
   xmlns:sodipodi="http://sodipodi.sourceforge.net/DTD/sodipodi-0.dtd"
   xmlns="http://www.w3.org/2000/svg"
   xmlns:svg="http://www.w3.org/2000/svg"
   xmlns:rdf="http://www.w3.org/1999/02/22-rdf-syntax-ns#"
   xmlns:cc="http://creativecommons.org/ns#"
   xmlns:dc="http://purl.org/dc/elements/1.1/">
  <sodipodi:namedview
     inkscape:window-maximized="1"
     inkscape:window-y="-8"
     inkscape:window-x="-8"
     inkscape:window-height="1057"
     inkscape:window-width="1920"
     inkscape:snap-grids="true"
     units="px"
     showgrid="false"
     inkscape:current-layer="layer2"
     inkscape:document-units="px"
     inkscape:cy="46.593286"
     inkscape:cx="61.998112"
     inkscape:zoom="3.959798"
     inkscape:pageshadow="2"
     inkscape:pageopacity="0"
     borderopacity="1.0"
     bordercolor="#666666"
     pagecolor="#dadada"
     id="base"
     inkscape:pagecheckerboard="1" />
  <defs
     id="defs4" />
  <metadata
     id="metadata7">
    <rdf:RDF>
      <cc:Work
         rdf:about="">
        <dc:format>image/svg+xml</dc:format>
        <dc:type
           rdf:resource="http://purl.org/dc/dcmitype/StillImage" />
        <dc:title />
      </cc:Work>
    </rdf:RDF>
  </metadata>
  <g
     inkscape:groupmode="layer"
     id="layer2"
     inkscape:label="Background"
     style="display:inline">
    <path
       style="opacity:1;fill:none;fill-opacity:1"
       d="m 0.06106804,90.01117 0,-9.722718 9.84898726,0 9.8489877,0 0,9.722718 0,9.722718 -9.8489877,0 -9.84898726,0 0,-9.722718 z"
       id="path3353"
       inkscape:connector-curvature="0" />
    <path
       style="opacity:1;fill:none;fill-opacity:1"
       d="m 0.06106804,69.934389 0,-9.848988 9.84898726,0 9.8489877,0 0,9.848988 0,9.848987 -9.8489877,0 -9.84898726,0 0,-9.848987 z"
       id="path3355"
       inkscape:connector-curvature="0" />
    <path
       style="fill:#ffffff;stroke-width:0.177282;stroke-linejoin:round;stroke-opacity:0.862745"
       d="m 0.12626907,9.9752563 c 0,3.2829957 0,6.5659917 0,9.8489877 6.56599153,0 13.13198293,0 19.69797493,0 0,-6.565992 0,-13.1319834 0,-19.69797493 -6.565992,0 -13.1319834,0 -19.69797493,0 0,3.28299573 0,6.56599153 0,9.84898723 z"
       id="path907" />
    <path
       style="fill:#ffffff;stroke-width:0.177282;stroke-linejoin:round;stroke-opacity:0.862745"
       d="m 0.12626907,29.925769 c 0,3.282996 0,6.565991 0,9.848987 6.56599153,0 13.13198293,0 19.69797493,0 0,-6.565991 0,-13.131983 0,-19.697974 -6.565992,0 -13.1319834,0 -19.69797493,0 0,3.282995 0,6.565991 0,9.848987 z"
       id="path946" />
    <path
       style="fill:#ffffff;stroke-width:0.177282;stroke-linejoin:round;stroke-opacity:0.862745"
       d="m 20.076782,29.925769 c 0,3.282996 0,6.565991 0,9.848987 6.565991,0 13.131983,0 19.697974,0 0,-6.565991 0,-13.131983 0,-19.697974 -6.565991,0 -13.131983,0 -19.697974,0 0,3.282995 0,6.565991 0,9.848987 z"
       id="path985" />
    <path
       style="fill:#ffffff;stroke-width:0.177282;stroke-linejoin:round;stroke-opacity:0.862745"
       d="m 20.076782,9.9752563 c 0,3.2829957 0,6.5659917 0,9.8489877 6.565991,0 13.131983,0 19.697974,0 0,-6.565992 0,-13.1319834 0,-19.69797493 -6.565991,0 -13.131983,0 -19.697974,0 0,3.28299573 0,6.56599153 0,9.84898723 z"
       id="path1024" />
    <path
       style="fill:#ffffff;stroke-width:0.177282;stroke-linejoin:round;stroke-opacity:0.862745"
       d="m 40.279832,9.9752563 c 0,3.2829957 0,6.5659917 0,9.8489877 6.481813,0 12.963625,0 19.445437,0 0,-6.565992 0,-13.1319834 0,-19.69797493 -6.481812,0 -12.963624,0 -19.445437,0 0,3.28299573 0,6.56599153 0,9.84898723 z"
       id="path1063" />
    <path
       style="fill:#ffffff;stroke-width:0.177282;stroke-linejoin:round;stroke-opacity:0.862745"
       d="m 60.230345,9.9752563 c 0,3.2829957 0,6.5659917 0,9.8489877 6.565992,0 13.131983,0 19.697975,0 0,-6.565992 0,-13.1319834 0,-19.69797493 -6.565992,0 -13.131983,0 -19.697975,0 0,3.28299573 0,6.56599153 0,9.84898723 z"
       id="path1102" />
    <path
       style="fill:#ffffff;stroke-width:0.177282;stroke-linejoin:round;stroke-opacity:0.862745"
       d="m 60.230345,29.925769 c 0,3.282996 0,6.565991 0,9.848987 6.565992,0 13.131983,0 19.697975,0 0,-6.565991 0,-13.131983 0,-19.697974 -6.565992,0 -13.131983,0 -19.697975,0 0,3.282995 0,6.565991 0,9.848987 z"
       id="path1141" />
    <path
       style="fill:#ffffff;stroke-width:0.177282;stroke-linejoin:round;stroke-opacity:0.862745"
       d="m 80.180858,29.925769 c 0,3.282996 0,6.565991 0,9.848987 6.565991,0 13.131983,0 19.697974,0 0,-6.565991 0,-13.131983 0,-19.697974 -6.565991,0 -13.131983,0 -19.697974,0 0,3.282995 0,6.565991 0,9.848987 z"
       id="path1180" />
    <path
       style="fill:#ffffff;stroke-width:0.177282;stroke-linejoin:round;stroke-opacity:0.862745"
       d="m 80.180858,9.9752563 c 0,3.2829957 0,6.5659917 0,9.8489877 6.565991,0 13.131983,0 19.697974,0 0,-6.565992 0,-13.1319834 0,-19.69797493 -6.565991,0 -13.131983,0 -19.697974,0 0,3.28299573 0,6.56599153 0,9.84898723 z"
       id="path1219" />
    <path
       style="fill:#ffffff;stroke-width:0.177282;stroke-linejoin:round;stroke-opacity:0.862745"
       d="m 80.180858,50.002551 c 0,3.240906 0,6.481812 0,9.722718 6.565991,0 13.131983,0 19.697974,0 0,-6.481812 0,-12.963624 0,-19.445437 -6.565991,0 -13.131983,0 -19.697974,0 0,3.240906 0,6.481813 0,9.722719 z"
       id="path1258" />
    <path
       style="fill:#ffffff;stroke-width:0.177282;stroke-linejoin:round;stroke-opacity:0.862745"
       d="m 40.279832,50.002551 c 0,3.240906 0,6.481812 0,9.722718 6.481813,0 12.963625,0 19.445437,0 0,-6.481812 0,-12.963624 0,-19.445437 -6.481812,0 -12.963624,0 -19.445437,0 0,3.240906 0,6.481813 0,9.722719 z"
       id="path1297" />
    <path
       style="fill:#ffffff;stroke-width:0.177282;stroke-linejoin:round;stroke-opacity:0.862745"
       d="m 20.076782,50.002551 c 0,3.240906 0,6.481812 0,9.722718 6.565991,0 13.131983,0 19.697974,0 0,-6.481812 0,-12.963624 0,-19.445437 -6.565991,0 -13.131983,0 -19.697974,0 0,3.240906 0,6.481813 0,9.722719 z"
       id="path1336" />
    <path
       style="fill:#ffffff;stroke-width:0.177282;stroke-linejoin:round;stroke-opacity:0.862745"
       d="m 0.12626907,50.002551 c 0,3.240906 0,6.481812 0,9.722718 6.56599153,0 13.13198293,0 19.69797493,0 0,-6.481812 0,-12.963624 0,-19.445437 -6.565992,0 -13.1319834,0 -19.69797493,0 0,3.240906 0,6.481813 0,9.722719 z"
       id="path1375" />
    <path
       style="fill:#ffffff;stroke-width:0.177282;stroke-linejoin:round;stroke-opacity:0.862745"
       d="m 0.12626907,70.079332 c 0,3.282996 0,6.565992 0,9.848988 6.56599153,0 13.13198293,0 19.69797493,0 0,-6.565992 0,-13.131983 0,-19.697975 -6.565992,0 -13.1319834,0 -19.69797493,0 0,3.282996 0,6.565992 0,9.848987 z"
       id="path1443" />
    <path
       style="fill:#ffffff;stroke-width:0.177282;stroke-linejoin:round;stroke-opacity:0.862745"
       d="m 0.12626907,90.029845 c 0,3.282996 0,6.565991 0,9.848987 6.56599153,0 13.13198293,0 19.69797493,0 0,-6.565991 0,-13.131983 0,-19.697974 -6.565992,0 -13.1319834,0 -19.69797493,0 0,3.282995 0,6.565991 0,9.848987 z"
       id="path1482" />
    <path
       style="fill:#ffffff;stroke-width:0.177282;stroke-linejoin:round;stroke-opacity:0.862745"
       d="m 20.076782,90.029845 c 0,3.282996 0,6.565991 0,9.848987 6.565991,0 13.131983,0 19.697974,0 0,-6.565991 0,-13.131983 0,-19.697974 -6.565991,0 -13.131983,0 -19.697974,0 0,3.282995 0,6.565991 0,9.848987 z"
       id="path1521" />
    <path
       style="fill:#ffffff;stroke-width:0.177282;stroke-linejoin:round;stroke-opacity:0.862745"
       d="m 40.279832,90.029845 c 0,3.282996 0,6.565991 0,9.848987 6.481813,0 12.963625,0 19.445437,0 0,-6.565991 0,-13.131983 0,-19.697974 -6.481812,0 -12.963624,0 -19.445437,0 0,3.282995 0,6.565991 0,9.848987 z"
       id="path1560" />
    <path
       style="fill:#ffffff;stroke-width:0.177282;stroke-linejoin:round;stroke-opacity:0.862745"
       d="m 60.230345,90.029845 c 0,3.282996 0,6.565991 0,9.848987 6.565992,0 13.131983,0 19.697975,0 0,-6.565991 0,-13.131983 0,-19.697974 -6.565992,0 -13.131983,0 -19.697975,0 0,3.282995 0,6.565991 0,9.848987 z"
       id="path1599" />
    <path
       style="fill:#ffffff;stroke-width:0.177282;stroke-linejoin:round;stroke-opacity:0.862745"
       d="m 80.180858,90.029845 c 0,3.282996 0,6.565991 0,9.848987 6.565991,0 13.131983,0 19.697974,0 0,-6.565991 0,-13.131983 0,-19.697974 -6.565991,0 -13.131983,0 -19.697974,0 0,3.282995 0,6.565991 0,9.848987 z"
       id="path1638" />
    <path
       style="fill:#ffffff;stroke-width:0.177282;stroke-linejoin:round;stroke-opacity:0.862745"
       d="m 80.180858,70.079332 c 0,3.282996 0,6.565992 0,9.848988 6.565991,0 13.131983,0 19.697974,0 0,-6.565992 0,-13.131983 0,-19.697975 -6.565991,0 -13.131983,0 -19.697974,0 0,3.282996 0,6.565992 0,9.848987 z"
       id="path1677" />
  </g>
  <g
     transform="translate(0,-952.36216)"
     id="layer1"
     inkscape:groupmode="layer"
     inkscape:label="Grid"
     style="display:inline">
    <path
       d="M 0,0 0,100 M 20,0 20,100 M 40,0 40,100 M 60,0 60,100 M 80,0 80,100 M 100,0 100,100 M 0,0 100,0 M 0,20 100,20 M 0,40 100,40 M 0,60 100,60 M 0,80 100,80 m -100,20 100,0"
       style="fill:none;fill-opacity:0.75;fill-rule:evenodd;stroke:#000000;stroke-width:0.1pt;stroke-linecap:butt;stroke-linejoin:miter;stroke-opacity:1"
       id="path4209"
       transform="translate(0,952.36216)"
       inkscape:connector-curvature="0" />
    <path
       style="opacity:1;fill:#000000;fill-opacity:1"
       d="m 20.264118,69.934389 0,-9.848987 9.722719,0 9.722718,0 0,9.848987 0,9.848987 -9.722718,0 -9.722719,0 0,-9.848987 z"
       id="path4211"
       inkscape:connector-curvature="0"
       transform="translate(0,952.36216)" />
    <path
       style="opacity:1;fill:#000000;fill-opacity:1"
       d="m 40.214631,69.934389 0,-9.848987 9.848988,0 9.848987,0 0,9.848987 0,9.848987 -9.848987,0 -9.848988,0 0,-9.848987 z"
       id="path4213"
       inkscape:connector-curvature="0"
       transform="translate(0,952.36216)" />
    <path
       style="opacity:1;fill:#000000;fill-opacity:1"
       d="m 60.165144,69.934389 0,-9.848987 9.848988,0 9.848987,0 0,9.848987 0,9.848987 -9.848987,0 -9.848988,0 0,-9.848987 z"
       id="path4215"
       inkscape:connector-curvature="0"
       transform="translate(0,952.36216)" />
    <path
       style="opacity:1;fill:#000000;fill-opacity:1"
       d="m 60.165144,49.983876 0,-9.848987 9.848988,0 9.848987,0 0,9.848987 0,9.848987 -9.848987,0 -9.848988,0 0,-9.848987 z"
       id="path4217"
       inkscape:connector-curvature="0"
       transform="translate(0,952.36216)" />
    <path
       style="opacity:1;fill:#000000;fill-opacity:1"
       d="m 40.214631,30.033363 0,-9.848987 9.848988,0 9.848987,0 0,9.848987 0,9.848988 -9.848987,0 -9.848988,0 0,-9.848988 z"
       id="path4219"
       inkscape:connector-curvature="0"
       transform="translate(0,952.36216)" />
    <path
       style="opacity:1;fill:none;fill-opacity:1"
       d="m 0.06106804,90.01117 0,-9.722718 9.84898726,0 9.8489877,0 0,9.722718 0,9.722718 -9.8489877,0 -9.84898726,0 0,-9.722718 z"
       id="path3349"
       inkscape:connector-curvature="0"
       transform="translate(0,952.36216)" />
    <path
       style="opacity:1;fill:none;fill-opacity:1"
       d="m 0.06106804,90.01117 0,-9.722718 9.84898726,0 9.8489877,0 0,9.722718 0,9.722718 -9.8489877,0 -9.84898726,0 0,-9.722718 z"
       id="path3351"
       inkscape:connector-curvature="0"
       transform="translate(0,952.36216)" />
  </g>
</svg>
