<?xml version="1.0" encoding="UTF-8" standalone="no"?>
<!DOCTYPE svg PUBLIC "-//W3C//DTD SVG 1.1//EN" "http://www.w3.org/Graphics/SVG/1.1/DTD/svg11.dtd">
<!-- Generated by Microsoft Visio, SVG Export agency_model.svg Operation Module Interaction (Wireframe) -->
<svg xmlns="http://www.w3.org/2000/svg" xmlns:xlink="http://www.w3.org/1999/xlink" xmlns:ev="http://www.w3.org/2001/xml-events" width="5.25996in" height="5.68842in" viewBox="0 0 378.717 409.566" xml:space="preserve" color-interpolation-filters="sRGB" class="st14">
	<style type="text/css">
	<![CDATA[
		.st1 {fill:#ffffff;stroke:#0c0c0c;stroke-linecap:round;stroke-linejoin:round;stroke-width:1.5}
		.st2 {fill:none;stroke:none;stroke-linecap:round;stroke-linejoin:round;stroke-width:1.5}
		.st3 {fill:#000000;font-family:Calibri;font-size:0.833336em}
		.st4 {font-size:1em}
		.st5 {fill:#000000;stroke:none;stroke-linecap:round;stroke-linejoin:round;stroke-width:1.5}
		.st6 {fill:#feffff;font-family:Calibri;font-size:0.833336em}
		.st7 {fill:#ffffff;stroke:#feffff;stroke-linecap:round;stroke-linejoin:round;stroke-width:1.5}
		.st8 {marker-end:url(#mrkr13-22);stroke:#000000;stroke-dasharray:6,3;stroke-linecap:butt;stroke-width:1.5}
		.st9 {fill:#000000;fill-opacity:1;stroke:#000000;stroke-opacity:1;stroke-width:0.37313432835821}
		.st10 {marker-end:url(#mrkr13-35);stroke:#7f7f7f;stroke-linecap:butt;stroke-width:1.5}
		.st11 {fill:#7f7f7f;fill-opacity:1;stroke:#7f7f7f;stroke-opacity:1;stroke-width:0.37313432835821}
		.st12 {fill:#feffff;font-family:Calibri;font-size:1.00001em}
		.st13 {marker-end:url(#mrkr13-35);marker-start:url(#mrkr13-61);stroke:#7f7f7f;stroke-linecap:butt;stroke-width:1.5}
		.st14 {fill:none;fill-rule:evenodd;font-size:12px;overflow:visible;stroke-linecap:square;stroke-miterlimit:3}
	]]>
	</style>

	<defs id="Markers">
		<g id="lend13">
			<path d="M 3 1 L 0 0 L 3 -1 L 3 1 " style="stroke:none"/>
		</g>
		<marker id="mrkr13-22" class="st9" refX="-8.04" orient="auto" markerUnits="strokeWidth" overflow="visible">
			<use xlink:href="#lend13" transform="scale(-2.68,-2.68) "/>
		</marker>
		<marker id="mrkr13-35" class="st11" refX="-8.04" orient="auto" markerUnits="strokeWidth" overflow="visible">
			<use xlink:href="#lend13" transform="scale(-2.68,-2.68) "/>
		</marker>
		<marker id="mrkr13-61" class="st11" refX="7.8" orient="auto" markerUnits="strokeWidth" overflow="visible">
			<use xlink:href="#lend13" transform="scale(2.68) "/>
		</marker>
	</defs>
	<g>
		<title>Operation Module Interaction</title>
		<g id="shape1-1" transform="translate(18.75,-64.7281)">
			<title>Round Corner Rectangle</title>
			<path d="M11.48 409.57 L327.88 409.57 A13.3383 13.3383 -180 0 0 341.22 396.23 L341.22 140.57 A13.3383 13.3383 -180 0        0 327.88 127.23 L11.48 127.23 A11.4771 11.4771 -180 0 0 0 138.71 L0 398.09 A11.4771 11.4771 -180 0 0 11.48        409.57 Z" class="st1"/>
		</g>
		<g id="shape3-3" transform="translate(161.825,-356.177)">
			<title>Sheet.3</title>
			<desc>perceived behavior</desc>
			<rect x="0" y="386.889" width="52.2236" height="22.6772" class="st2"/>
			<text x="6.13" y="395.23" class="st3">perceived <tspan x="8.19" dy="1.2em" class="st4">behavior</tspan></text>		</g>
		<g id="shape4-7" transform="translate(108.567,-288.363)">
			<title>Round Corner Rectangle.23</title>
			<desc>Recent Activity Perception</desc>
			<path d="M7.37 409.57 L66.33 409.57 A7.36996 7.36996 -180 0 0 73.7 402.2 L73.7 374.42 A7.36996 7.36996 -180 0 0 66.33        367.05 L7.37 367.05 A7.36996 7.36996 -180 0 0 0 374.42 L0 402.2 A7.36996 7.36996 -180 0 0 7.37 409.57 Z" class="st5"/>
			<text x="6.44" y="385.31" class="st6">Recent Activity <tspan x="14.72" dy="1.2em" class="st4">Perception</tspan></text>		</g>
		<g id="shape7-11" transform="translate(193.606,-288.363)">
			<title>Round Corner Rectangle.7</title>
			<desc>Current Activity Perception</desc>
			<path d="M7.37 409.57 L66.33 409.57 A7.36996 7.36996 -180 0 0 73.7 402.2 L73.7 374.42 A7.36996 7.36996 -180 0 0 66.33        367.05 L7.37 367.05 A7.36996 7.36996 -180 0 0 0 374.42 L0 402.2 A7.36996 7.36996 -180 0 0 7.37 409.57 Z" class="st5"/>
			<text x="4.98" y="385.31" class="st6">Current Activity <tspan x="14.72" dy="1.2em" class="st4">Perception</tspan></text>		</g>
		<g id="shape45-15" transform="translate(134.97,-338.74)">
			<title>Process</title>
			<rect x="0" y="400.354" width="18.9508" height="9.21261" class="st7"/>
		</g>
		<g id="shape8-17" transform="translate(138.331,-377.277)">
			<title>Dynamic connector</title>
			<path d="M7.09 409.57 L7.09 443.9" class="st8"/>
		</g>
		<g id="shape46-23" transform="translate(221.953,-338.74)">
			<title>Process.46</title>
			<rect x="0" y="400.354" width="18.9508" height="9.21261" class="st7"/>
		</g>
		<g id="shape9-25" transform="translate(223.37,-378.854)">
			<title>Dynamic connector.9</title>
			<path d="M7.09 409.57 L7.09 445.48" class="st8"/>
		</g>
		<g id="shape10-30" transform="translate(145.417,-288.363)">
			<title>Dynamic connector.34</title>
			<path d="M0 409.57 L0 416.08 A5.04 5.04 -180 0 0 5.04 421.12 L37.48 421.12 A5.04 5.04 0 0 1 42.52 426.16 L42.52 427.49" class="st10"/>
		</g>
		<g id="shape11-36" transform="translate(97.2283,-262.728)">
			<title>Sheet.11</title>
			<desc>dialogue moves</desc>
			<rect x="0" y="386.889" width="52.2236" height="22.6772" class="st2"/>
			<text x="4" y="395.23" class="st3">dialogue <tspan x="4" dy="1.2em" class="st4">moves</tspan></text>		</g>
		<g id="shape12-40" transform="translate(232.091,-262.823)">
			<title>Sheet.12</title>
			<desc>activity status</desc>
			<rect x="0" y="386.889" width="52.2236" height="22.6772" class="st2"/>
			<text x="4" y="395.23" class="st3">activity <tspan x="4" dy="1.2em" class="st4">status</tspan></text>		</g>
		<g id="shape13-44" transform="translate(230.457,-288.363)">
			<title>Dynamic connector.13</title>
			<path d="M0 409.57 L0 416.08 A5.04 5.04 0 0 1 -5.04 421.12 L-37.48 421.12 A5.04 5.04 -180 0 0 -42.52 426.16 L-42.52 427.49" class="st10"/>
		</g>
		<g id="shape14-49" transform="translate(151.087,-215.862)">
			<title>Round Corner Rectangle.14</title>
			<desc>State Update</desc>
			<path d="M7.37 409.57 L66.33 409.57 A7.36996 7.36996 -180 0 0 73.7 402.2 L73.7 374.42 A7.36996 7.36996 -180 0 0 66.33        367.05 L7.37 367.05 A7.36996 7.36996 -180 0 0 0 374.42 L0 402.2 A7.36996 7.36996 -180 0 0 7.37 409.57 Z" class="st5"/>
			<text x="4.83" y="391.91" class="st12">State Update</text>		</g>
		<g id="shape15-52" transform="translate(32.9232,-143.44)">
			<title>Round Corner Rectangle.6</title>
			<desc>Information State</desc>
			<path d="M21.26 409.57 L291.89 409.57 A21.2595 21.2595 -180 0 0 313.15 388.31 A21.2595 21.2595 -180 0 0 291.89 367.05        L21.26 367.05 A21.2595 21.2595 -180 0 0 -0 388.31 A21.2595 21.2595 -180 0 0 21.26 409.57 Z" class="st5"/>
			<text x="113.46" y="391.91" class="st12">Information State</text>		</g>
		<g id="shape16-55" transform="translate(180.992,-215.862)">
			<title>Dynamic connector.16</title>
			<path d="M7.06 421.27 L7.06 421.63 L7.11 427.41" class="st13"/>
		</g>
		<g id="shape17-63" transform="translate(190.172,-189.453)">
			<title>Sheet.17</title>
			<desc>&lt;affects&gt;</desc>
			<rect x="0" y="386.889" width="52.2236" height="22.6772" class="st2"/>
			<text x="7.45" y="401.23" class="st3">&lt;affects&gt;</text>		</g>
		<g id="shape18-66" transform="translate(32.9232,-78.2436)">
			<title>Round Corner Rectangle.18</title>
			<desc>Action Selection</desc>
			<path d="M7.37 409.57 L66.33 409.57 A7.36996 7.36996 -180 0 0 73.7 402.2 L73.7 374.42 A7.36996 7.36996 -180 0 0 66.33        367.05 L7.37 367.05 A7.36996 7.36996 -180 0 0 0 374.42 L0 402.2 A7.36996 7.36996 -180 0 0 7.37 409.57 Z" class="st5"/>
			<text x="21.14" y="384.71" class="st12">Action <tspan x="14.51" dy="1.2em" class="st4">Selection</tspan></text>		</g>
		<g id="shape19-70" transform="translate(262.381,-78.2436)">
			<title>Round Corner Rectangle.19</title>
			<desc>Action Realization</desc>
			<path d="M7.37 409.57 L66.33 409.57 A7.36996 7.36996 -180 0 0 73.7 402.2 L73.7 374.42 A7.36996 7.36996 -180 0 0 66.33        367.05 L7.37 367.05 A7.36996 7.36996 -180 0 0 0 374.42 L0 402.2 A7.36996 7.36996 -180 0 0 7.37 409.57 Z" class="st5"/>
			<text x="21.14" y="384.71" class="st12">Action <tspan x="10.03" dy="1.2em" class="st4">Realization</tspan></text>		</g>
		<g id="shape20-74" transform="translate(147.652,-78.2436)">
			<title>Round Corner Rectangle.20</title>
			<desc>Action Timing</desc>
			<path d="M7.37 409.57 L66.33 409.57 A7.36996 7.36996 -180 0 0 73.7 402.2 L73.7 374.42 A7.36996 7.36996 -180 0 0 66.33        367.05 L7.37 367.05 A7.36996 7.36996 -180 0 0 0 374.42 L0 402.2 A7.36996 7.36996 -180 0 0 7.37 409.57 Z" class="st5"/>
			<text x="21.14" y="384.71" class="st12">Action <tspan x="20.4" dy="1.2em" class="st4">Timing</tspan></text>		</g>
		<g id="shape22-78" transform="translate(76.8602,-143.724)">
			<title>Dynamic connector.22</title>
			<path d="M-7.09 409.57 L-7.09 420.47" class="st10"/>
		</g>
		<g id="shape23-83" transform="translate(191.589,-143.342)">
			<title>Dynamic connector.23</title>
			<path d="M-7.09 409.57 L-7.09 420.09" class="st10"/>
		</g>
		<g id="shape25-88" transform="translate(68.2819,-120.763)">
			<title>Sheet.25</title>
			<desc>&lt;affects&gt;</desc>
			<rect x="0" y="386.889" width="52.2236" height="22.6772" class="st2"/>
			<text x="7.45" y="401.23" class="st3">&lt;affects&gt;</text>		</g>
		<g id="shape26-91" transform="translate(106.624,-92.4168)">
			<title>Dynamic connector.36</title>
			<path d="M0 402.48 L28.97 402.48" class="st10"/>
		</g>
		<g id="shape27-96" transform="translate(106.624,-101.488)">
			<title>Sheet.27</title>
			<desc>target move</desc>
			<rect x="0" y="386.889" width="35.3586" height="22.6772" class="st2"/>
			<text x="4" y="395.23" class="st3">target <tspan x="4" dy="1.2em" class="st4">move</tspan></text>		</g>
		<g id="shape28-100" transform="translate(183.902,-120.763)">
			<title>Sheet.28</title>
			<desc>&lt;affects&gt;</desc>
			<rect x="0" y="386.889" width="52.2236" height="22.6772" class="st2"/>
			<text x="7.45" y="401.23" class="st3">&lt;affects&gt;</text>		</g>
		<g id="shape47-103" transform="translate(289.984,-62.9292)">
			<title>Process.47</title>
			<rect x="0" y="401.629" width="18.9508" height="7.93699" class="st7"/>
		</g>
		<g id="shape34-105" transform="translate(292.144,-78.2436)">
			<title>Dynamic connector.34</title>
			<path d="M7.09 409.57 L7.09 445.04" class="st8"/>
		</g>
		<g id="shape35-110" transform="translate(305.192,-33.736)">
			<title>Sheet.35</title>
			<desc>output behavior</desc>
			<rect x="0" y="386.889" width="52.2236" height="22.6772" class="st2"/>
			<text x="4" y="395.23" class="st3">output <tspan x="4" dy="1.2em" class="st4">behavior</tspan></text>		</g>
		<g id="shape37-114" transform="translate(292.144,-143.342)">
			<title>Dynamic connector.37</title>
			<path d="M7.09 409.57 L7.09 420.09" class="st10"/>
		</g>
		<g id="shape38-119" transform="translate(297.666,-121.421)">
			<title>Sheet.38</title>
			<desc>&lt;affects&gt;</desc>
			<rect x="0" y="386.889" width="52.2236" height="22.6772" class="st2"/>
			<text x="7.45" y="401.23" class="st3">&lt;affects&gt;</text>		</g>
		<g id="shape39-122" transform="translate(221.353,-92.4168)">
			<title>Dynamic connector.39</title>
			<path d="M0 402.48 L28.97 402.48" class="st10"/>
		</g>
		<g id="shape40-127" transform="translate(221.353,-101.767)">
			<title>Sheet.40</title>
			<desc>Stop/Go</desc>
			<rect x="0" y="386.889" width="35.3586" height="22.6772" class="st2"/>
			<text x="4" y="395.23" class="st3">Stop/<tspan x="4" dy="1.2em" class="st4">Go</tspan></text>		</g>
		<g id="shape41-131" transform="translate(295.654,-185.96)">
			<title>Dynamic connector.41</title>
			<path d="M0 409.57 L0 290.94 A5.04 5.04 -180 0 0 -5.04 285.9 L-16.29 285.9" class="st10"/>
		</g>
		<g id="shape42-136" transform="translate(293.854,-186.618)">
			<title>Sheet.42</title>
			<desc>&lt;affects&gt;</desc>
			<rect x="0" y="386.889" width="52.2236" height="22.6772" class="st2"/>
			<text x="7.45" y="401.23" class="st3">&lt;affects&gt;</text>		</g>
		<g id="shape43-139" transform="translate(80.2205,-185.96)">
			<title>Dynamic connector.43</title>
			<path d="M0 409.57 L0 290.94 A5.04 5.04 0 0 1 5.04 285.9 L16.29 285.9" class="st10"/>
		</g>
		<g id="shape44-144" transform="translate(29.1968,-186.618)">
			<title>Sheet.44</title>
			<desc>&lt;affects&gt;</desc>
			<rect x="0" y="386.889" width="52.2236" height="22.6772" class="st2"/>
			<text x="7.45" y="401.23" class="st3">&lt;affects&gt;</text>		</g>
	</g>
</svg>