<?xml version="1.0" encoding="UTF-8" standalone="no"?>
<!-- Created with Inkscape (http://www.inkscape.org/) -->

<svg
   xmlns:dc="http://purl.org/dc/elements/1.1/"
   xmlns:cc="http://creativecommons.org/ns#"
   xmlns:rdf="http://www.w3.org/1999/02/22-rdf-syntax-ns#"
   xmlns:svg="http://www.w3.org/2000/svg"
   xmlns="http://www.w3.org/2000/svg"
   xmlns:sodipodi="http://sodipodi.sourceforge.net/DTD/sodipodi-0.dtd"
   xmlns:inkscape="http://www.inkscape.org/namespaces/inkscape"
   inkscape:version="0.91 r13725"
   version="1.1"
   id="svg2"
   viewBox="0 0 100 100"
   height="100"
   width="100"
   sodipodi:docname="block_4x4.svg">
  <title
     id="title3344">Block</title>
  <sodipodi:namedview
     inkscape:window-maximized="1"
     inkscape:window-y="-8"
     inkscape:window-x="-8"
     inkscape:window-height="697"
     inkscape:window-width="1280"
     inkscape:snap-grids="true"
     units="px"
     showgrid="false"
     inkscape:current-layer="svg2"
     inkscape:document-units="px"
     inkscape:cy="56.733638"
     inkscape:cx="61.932911"
     inkscape:zoom="3.959798"
     inkscape:pageshadow="2"
     inkscape:pageopacity="0.0"
     borderopacity="1.0"
     bordercolor="#666666"
     pagecolor="#ffffff"
     id="base" />
  <defs
     id="defs4" />
  <metadata
     id="metadata7">
    <rdf:RDF>
      <cc:Work
         rdf:about="">
        <dc:format>image/svg+xml</dc:format>
        <dc:type
           rdf:resource="http://purl.org/dc/dcmitype/StillImage" />
        <dc:title>Block</dc:title>
      </cc:Work>
    </rdf:RDF>
  </metadata>
  <g
     transform="translate(0,-952.36216)"
     id="layer1"
     inkscape:groupmode="layer"
     inkscape:label="Layer 1" />
  <path
     d="M 0,0 0,100 M 25,0 25,100 M 50,0 50,100 M 75,0 75,100 M 100,0 100,100 M 0,0 100,0 M 0,25 100,25 M 0,50 100,50 M 0,75 100,75 m -100,25 100,0"
     style="fill:none;fill-opacity:0.75000000;fill-rule:evenodd;stroke:#000000;stroke-linecap:butt;stroke-linejoin:miter;stroke-opacity:1.0000000;stroke-width:0.1pt"
     id="path3334" />
  <path
     style="opacity:1;fill:#000000;fill-opacity:1"
     d="m 25.062343,62.484514 0,-12.248099 12.374369,0 12.374369,0 0,12.248099 0,12.2481 -12.374369,0 -12.374369,0 0,-12.2481 z"
     id="path3336"
     inkscape:connector-curvature="0" />
  <path
     style="opacity:1;fill:#000000;fill-opacity:1"
     d="m 50.063619,62.484514 0,-12.248099 12.374368,0 12.374369,0 0,12.248099 0,12.2481 -12.374369,0 -12.374368,0 0,-12.2481 z"
     id="path3338"
     inkscape:connector-curvature="0" />
  <path
     style="opacity:1;fill:#000000;fill-opacity:1"
     d="m 50.063619,37.483239 0,-12.2481 12.374368,0 12.374369,0 0,12.2481 0,12.248099 -12.374369,0 -12.374368,0 0,-12.248099 z"
     id="path3340"
     inkscape:connector-curvature="0" />
  <path
     style="opacity:1;fill:#000000;fill-opacity:1"
     d="m 25.062343,37.483239 0,-12.2481 12.374369,0 12.374369,0 0,12.2481 0,12.248099 -12.374369,0 -12.374369,0 0,-12.248099 z"
     id="path3342"
     inkscape:connector-curvature="0" />
</svg>
