<?xml version="1.0" encoding="UTF-8" standalone="no"?>
<!-- Created with Inkscape (http://www.inkscape.org/) -->

<svg
   xmlns:dc="http://purl.org/dc/elements/1.1/"
   xmlns:cc="http://creativecommons.org/ns#"
   xmlns:rdf="http://www.w3.org/1999/02/22-rdf-syntax-ns#"
   xmlns:svg="http://www.w3.org/2000/svg"
   xmlns="http://www.w3.org/2000/svg"
   xmlns:sodipodi="http://sodipodi.sourceforge.net/DTD/sodipodi-0.dtd"
   xmlns:inkscape="http://www.inkscape.org/namespaces/inkscape"
   inkscape:version="0.91 r13725"
   version="1.1"
   id="svg2"
   viewBox="0 0 60 60"
   height="60"
   width="60"
   sodipodi:docname="loaf_6x6.svg">
  <title
     id="title3366">Load</title>
  <sodipodi:namedview
     inkscape:window-maximized="1"
     inkscape:window-y="-8"
     inkscape:window-x="-8"
     inkscape:window-height="697"
     inkscape:window-width="1280"
     inkscape:snap-grids="true"
     units="px"
     showgrid="false"
     inkscape:current-layer="svg2"
     inkscape:document-units="px"
     inkscape:cy="56.733638"
     inkscape:cx="61.932911"
     inkscape:zoom="3.959798"
     inkscape:pageshadow="2"
     inkscape:pageopacity="0.0"
     borderopacity="1.0"
     bordercolor="#666666"
     pagecolor="#ffffff"
     id="base" />
  <defs
     id="defs4" />
  <metadata
     id="metadata7">
    <rdf:RDF>
      <cc:Work
         rdf:about="">
        <dc:format>image/svg+xml</dc:format>
        <dc:type
           rdf:resource="http://purl.org/dc/dcmitype/StillImage" />
        <dc:title>Load</dc:title>
      </cc:Work>
    </rdf:RDF>
  </metadata>
  <g
     transform="translate(0,-992.36216)"
     id="layer1"
     inkscape:groupmode="layer"
     inkscape:label="Layer 1" />
  <path
     d="M 0,0 0,60 M 10,0 10,60 M 20,0 20,60 M 30,0 30,60 M 40,0 40,60 M 50,0 50,60 M 60,0 60,60 M 0,0 60,0 M 0,10 60,10 M 0,20 60,20 M 0,30 60,30 M 0,40 60,40 M 0,50 60,50 M 0,60 60,60"
     style="fill:none;fill-opacity:0.75000000;fill-rule:evenodd;stroke:#000000;stroke-linecap:butt;stroke-linejoin:miter;stroke-opacity:1.0000000;stroke-width:0.1pt"
     id="path3348" />
  <path
     style="opacity:1;fill:#000000;fill-opacity:1"
     d="m 40.214631,34.985152 0,-4.798225 4.798225,0 4.798225,0 0,4.798225 0,4.798224 -4.798225,0 -4.798225,0 0,-4.798224 z"
     id="path3350"
     inkscape:connector-curvature="0" />
  <path
     style="opacity:1;fill:#000000;fill-opacity:1"
     d="m 40.214631,25.009896 0,-4.924494 4.798225,0 4.798225,0 0,4.924494 0,4.924493 -4.798225,0 -4.798225,0 0,-4.924493 z"
     id="path3352"
     inkscape:connector-curvature="0" />
  <path
     style="opacity:1;fill:#000000;fill-opacity:1"
     d="m 30.113106,15.034639 0,-4.798224 4.798225,0 4.798224,0 0,4.798224 0,4.798225 -4.798224,0 -4.798225,0 0,-4.798225 z"
     id="path3356"
     inkscape:connector-curvature="0" />
  <path
     style="opacity:1;fill:#000000;fill-opacity:1"
     d="m 20.264119,15.034639 0,-4.798224 4.798224,0 4.798225,0 0,4.798224 0,4.798225 -4.798225,0 -4.798224,0 0,-4.798225 z"
     id="path3358"
     inkscape:connector-curvature="0" />
  <path
     style="opacity:1;fill:#000000;fill-opacity:1"
     d="m 10.162593,25.009896 0,-4.924494 4.798225,0 4.798225,0 0,4.924494 0,4.924493 -4.798225,0 -4.798225,0 0,-4.924493 z"
     id="path3360"
     inkscape:connector-curvature="0" />
  <path
     style="opacity:1;fill:#000000;fill-opacity:1"
     d="m 20.264119,34.985152 0,-4.798225 4.798224,0 4.798225,0 0,4.798225 0,4.798224 -4.798225,0 -4.798224,0 0,-4.798224 z"
     id="path3362"
     inkscape:connector-curvature="0" />
  <path
     style="opacity:1;fill:#000000;fill-opacity:1"
     d="m 30.113106,45.086677 0,-4.798224 4.798225,0 4.798224,0 0,4.798224 0,4.798225 -4.798224,0 -4.798225,0 0,-4.798225 z"
     id="path3364"
     inkscape:connector-curvature="0" />
</svg>
