<?xml version="1.0" encoding="UTF-8" standalone="no"?>
<svg
   xmlns:dc="http://purl.org/dc/elements/1.1/"
   xmlns:cc="http://creativecommons.org/ns#"
   xmlns:rdf="http://www.w3.org/1999/02/22-rdf-syntax-ns#"
   xmlns:svg="http://www.w3.org/2000/svg"
   xmlns="http://www.w3.org/2000/svg"
   xmlns:sodipodi="http://sodipodi.sourceforge.net/DTD/sodipodi-0.dtd"
   xmlns:inkscape="http://www.inkscape.org/namespaces/inkscape"
   version="1.0"
   width="640"
   height="640"
   viewBox="0 0 512 512"
   preserveAspectRatio="xMidYMid meet"
   id="svg2"
   inkscape:version="0.91 r13725"
   sodipodi:docname="soundwave_icon_640px.svg">
  <title
     id="title4180">Soundwave</title>
  <defs
     id="defs38" />
  <sodipodi:namedview
     pagecolor="#ffffff"
     bordercolor="#666666"
     borderopacity="1"
     objecttolerance="10"
     gridtolerance="10"
     guidetolerance="10"
     inkscape:pageopacity="0"
     inkscape:pageshadow="2"
     inkscape:window-width="1280"
     inkscape:window-height="697"
     id="namedview36"
     showgrid="false"
     units="px"
     inkscape:zoom="0.36875"
     inkscape:cx="320"
     inkscape:cy="320"
     inkscape:window-x="-8"
     inkscape:window-y="-8"
     inkscape:window-maximized="1"
     inkscape:current-layer="svg2" />
  <metadata
     id="metadata4">
Created by potrace 1.14, written by Peter Selinger 2001-2017
<rdf:RDF>
  <cc:Work
     rdf:about="">
    <dc:format>image/svg+xml</dc:format>
    <dc:type
       rdf:resource="http://purl.org/dc/dcmitype/StillImage" />
    <dc:title>Soundwave</dc:title>
  </cc:Work>
</rdf:RDF>
</metadata>
  <g
     transform="matrix(0.1,0,0,-0.1,0,512)"
     id="g6"
     style="fill:#316899;fill-opacity:1;stroke:none">
    <path
       d="m 2397,3653 -87,-4 2,-1097 3,-1097 98,-3 c 88,-2 97,-1 97,15 0,10 1,505 3,1100 2,894 0,1084 -11,1088 -8,3 -14,4 -15,3 -1,-1 -41,-4 -90,-5 z"
       id="path8"
       style="fill:#316899;fill-opacity:1"
       inkscape:connector-curvature="0" />
    <path
       d="m 2032,3252 -22,-3 2,-697 3,-697 99,0 100,0 -1,28 c -1,15 -1,330 -2,700 l -1,672 -77,0 c -43,0 -88,-1 -101,-3 z"
       id="path10"
       style="fill:#316899;fill-opacity:1"
       inkscape:connector-curvature="0" />
    <path
       d="m 2610,2562 c 1,-378 4,-693 9,-700 6,-9 33,-12 102,-10 l 94,3 3,698 2,697 -105,0 -105,0 0,-688 z"
       id="path12"
       style="fill:#316899;fill-opacity:1"
       inkscape:connector-curvature="0" />
    <path
       d="m 1410,2554 0,-500 100,-3 100,-2 0,500 0,500 -100,3 -100,3 0,-501 z"
       id="path14"
       style="fill:#316899;fill-opacity:1"
       inkscape:connector-curvature="0" />
    <path
       d="m 2916,2936 c -8,-34 -7,-776 1,-777 35,-4 187,-3 194,2 5,3 8,167 7,400 l -3,394 -97,1 c -91,2 -97,0 -102,-20 z"
       id="path16"
       style="fill:#316899;fill-opacity:1"
       inkscape:connector-curvature="0" />
    <path
       d="m 3822,2558 3,-400 95,0 95,0 3,400 2,400 -100,0 -100,0 2,-400 z"
       id="path18"
       style="fill:#316899;fill-opacity:1"
       inkscape:connector-curvature="0" />
    <path
       d="m 1198,2852 -88,-3 0,-299 0,-300 100,0 100,0 0,299 c 0,231 -3,300 -12,302 -7,2 -52,3 -100,1 z"
       id="path20"
       style="fill:#316899;fill-opacity:1"
       inkscape:connector-curvature="0" />
    <path
       d="m 1712,2555 3,-300 95,0 95,0 3,298 c 1,163 -1,297 -5,297 -5,0 -50,2 -101,3 l -92,2 2,-300 z"
       id="path22"
       style="fill:#316899;fill-opacity:1"
       inkscape:connector-curvature="0" />
    <path
       d="m 3317,2852 -97,-3 2,-297 3,-297 93,-3 c 70,-3 93,0 97,10 3,7 4,144 3,303 l -3,290 -98,-3 z"
       id="path24"
       style="fill:#316899;fill-opacity:1"
       inkscape:connector-curvature="0" />
    <path
       d="m 4126,2802 c -3,-3 -6,-114 -6,-248 0,-185 3,-243 13,-246 6,-2 51,-2 100,0 l 87,3 0,245 0,244 -77,1 c -43,0 -86,2 -95,4 -9,2 -19,0 -22,-3 z"
       id="path26"
       style="fill:#316899;fill-opacity:1"
       inkscape:connector-curvature="0" />
    <path
       d="m 805,2750 c -2,-3 -4,-92 -4,-198 l 0,-191 32,-6 c 18,-3 64,-5 102,-3 l 70,3 0,199 0,200 -98,0 c -55,1 -100,-1 -102,-4 z"
       id="path28"
       style="fill:#316899;fill-opacity:1"
       inkscape:connector-curvature="0" />
    <path
       d="m 3608,2752 -88,-3 0,-200 0,-200 100,2 100,1 0,203 c 0,155 -3,201 -12,201 -7,-1 -52,-2 -100,-4 z"
       id="path30"
       style="fill:#316899;fill-opacity:1"
       inkscape:connector-curvature="0" />
    <path
       d="m 508,2558 c -2,-59 1,-99 7,-101 6,-2 51,-3 100,-3 l 90,1 0,99 0,98 -97,2 -97,1 -3,-97 z"
       id="path32"
       style="fill:#316899;fill-opacity:1"
       inkscape:connector-curvature="0" />
    <path
       d="m 4423,2644 c -2,-6 -3,-51 -1,-100 l 3,-89 80,-3 c 129,-5 125,-8 125,103 0,69 -3,95 -12,96 -76,6 -191,2 -195,-7 z"
       id="path34"
       style="fill:#316899;fill-opacity:1"
       inkscape:connector-curvature="0" />
  </g>
</svg>
